<svg width="47" height="45" viewBox="0 0 47 45" fill="none" xmlns="http://www.w3.org/2000/svg">
<path d="M41 0H6C2.68629 0 0 2.68629 0 6V39C0 42.3137 2.68629 45 6 45H41C44.3137 45 47 42.3137 47 39V6C47 2.68629 44.3137 0 41 0Z" fill="#E31D1D"/>
<path d="M29.3876 16.092L28.0316 31.545H18.0896L16.7336 16.092L15.0156 16.243L16.3966 31.98C16.4353 32.3339 16.6027 32.6612 16.8669 32.8997C17.1311 33.1383 17.4737 33.2715 17.8296 33.274H28.2916C28.6485 33.2709 28.9917 33.1368 29.2561 32.8971C29.5205 32.6574 29.6876 32.3289 29.7256 31.974L31.1056 16.251L29.3876 16.092Z" fill="white"/>
<path d="M26.2228 12H19.8988C19.5184 12.0013 19.154 12.1532 18.8853 12.4225C18.6165 12.6918 18.4654 13.0566 18.4648 13.437V16.168H20.1898V13.725H25.9388V16.168H27.6638V13.437C27.6636 13.248 27.6261 13.061 27.5535 12.8865C27.481 12.712 27.3748 12.5535 27.241 12.4201C27.1071 12.2866 26.9484 12.1808 26.7737 12.1088C26.599 12.0367 26.4118 11.9997 26.2228 12Z" fill="white"/>
<path d="M32.2625 15.3051H13.8625C13.6338 15.3051 13.4144 15.3959 13.2526 15.5577C13.0909 15.7194 13 15.9388 13 16.1675C13 16.3963 13.0909 16.6157 13.2526 16.7774C13.4144 16.9392 13.6338 17.0301 13.8625 17.0301H32.2625C32.4912 17.0301 32.7106 16.9392 32.8724 16.7774C33.0341 16.6157 33.125 16.3963 33.125 16.1675C33.125 15.9388 33.0341 15.7194 32.8724 15.5577C32.7106 15.3959 32.4912 15.3051 32.2625 15.3051Z" fill="white"/>
</svg>
