<svg width="47" height="45" viewBox="0 0 47 45" fill="none" xmlns="http://www.w3.org/2000/svg">
<path opacity="0.3" d="M41 0H6C2.68629 0 0 2.68629 0 6V39C0 42.3137 2.68629 45 6 45H41C44.3137 45 47 42.3137 47 39V6C47 2.68629 44.3137 0 41 0Z" fill="#DDDDDD"/>
<path d="M23.5674 31.1807L28.5304 25.6587C28.612 25.5626 28.7135 25.4854 28.8279 25.4324C28.9423 25.3795 29.0668 25.3521 29.1929 25.3521C29.3189 25.3521 29.4435 25.3795 29.5579 25.4324C29.6723 25.4854 29.7738 25.5626 29.8554 25.6587C30.0312 25.8646 30.1279 26.1264 30.1279 26.3972C30.1279 26.6679 30.0312 26.9298 29.8554 27.1357L24.2314 33.3927C24.1519 33.4854 24.0538 33.5603 23.9435 33.6126C23.8332 33.6649 23.7131 33.6933 23.5911 33.6962C23.469 33.699 23.3477 33.6761 23.2351 33.629C23.1225 33.5819 23.0211 33.5116 22.9374 33.4227L17.2754 27.1397C17.099 26.9341 17.002 26.6721 17.002 26.4012C17.002 26.1303 17.099 25.8683 17.2754 25.6627C17.357 25.5666 17.4585 25.4894 17.5729 25.4364C17.6873 25.3835 17.8118 25.3561 17.9379 25.3561C18.0639 25.3561 18.1885 25.3835 18.3029 25.4364C18.4173 25.4894 18.5188 25.5666 18.6004 25.6627L23.5674 31.1807Z" fill="#888B96"/>
<path d="M23.5609 12.5147L18.5979 18.0377C18.5163 18.1338 18.4148 18.211 18.3004 18.264C18.186 18.3169 18.0615 18.3444 17.9354 18.3444C17.8093 18.3444 17.6848 18.3169 17.5704 18.264C17.456 18.211 17.3545 18.1338 17.2729 18.0377C17.097 17.8319 17.0004 17.57 17.0004 17.2992C17.0004 17.0285 17.097 16.7666 17.2729 16.5607L22.8969 10.3037C22.9764 10.211 23.0744 10.1361 23.1848 10.0838C23.2951 10.0316 23.4152 10.0031 23.5372 10.0002C23.6593 9.99741 23.7805 10.0203 23.8932 10.0674C24.0058 10.1145 24.1072 10.1848 24.1909 10.2737L29.8529 16.5557C30.0319 16.7601 30.1294 17.0231 30.1269 17.2947C30.1292 17.566 30.0317 17.8287 29.8529 18.0327C29.7713 18.129 29.6698 18.2064 29.5553 18.2594C29.4408 18.3125 29.3161 18.3399 29.1899 18.3399C29.0637 18.3399 28.939 18.3125 28.8245 18.2594C28.71 18.2064 28.6085 18.129 28.5269 18.0327L23.5609 12.5147Z" fill="#888B96"/>
</svg>
